inDegrees=no
num_controls=7
num_derivatives=13
num_iterations=70
num_multipliers=7
num_parameters=0
num_slacks=7
num_states=26
objective=0.333912
objective_accelerations=0.037153
objective_balance=0.001321
objective_effort=0.027266
objective_height=0.266697
objective_ligament=0.001475
solver_duration=721.582423
status=Solve_Succeeded
success=true
DataType=double
version=3
OpenSimVersion=4.5
endheader
time	/jointset/ground_pelvis/pelvis_tilt/value	/jointset/ground_pelvis/pelvis_tx/value	/jointset/ground_pelvis/pelvis_ty/value	/jointset/hip_r/hip_flexion_r/value	/jointset/hip_r/hip_adduction_r/value	/jointset/hip_r/hip_rotation_r/value	/jointset/back/lumbar_extension/value	/jointset/patellofemoral_r/patellar_flexion_r/value	/jointset/knee_r/knee_flexion_r/value	/jointset/knee_r/knee_adduction_r/value	/jointset/knee_r/knee_rotation_r/value	/jointset/ankle_r/ankle_angle_r/value	/jointset/subtalar_r/subtalar_angle_r/value	/jointset/ground_pelvis/pelvis_tilt/speed	/jointset/ground_pelvis/pelvis_tx/speed	/jointset/ground_pelvis/pelvis_ty/speed	/jointset/hip_r/hip_flexion_r/speed	/jointset/hip_r/hip_adduction_r/speed	/jointset/hip_r/hip_rotation_r/speed	/jointset/back/lumbar_extension/speed	/jointset/patellofemoral_r/patellar_flexion_r/speed	/jointset/knee_r/knee_flexion_r/speed	/jointset/knee_r/knee_adduction_r/speed	/jointset/knee_r/knee_rotation_r/speed	/jointset/ankle_r/ankle_angle_r/speed	/jointset/subtalar_r/subtalar_angle_r/speed	/forceset/tau_hip_flexion_r	/forceset/tau_hip_adduction_r	/forceset/tau_hip_rotation_r	/forceset/tau_knee_flexion_r	/forceset/tau_ankle_angle_r	/forceset/tau_subtalar_angle_r	/forceset/tau_lumbar_extension	lambda_cid13_p0	lambda_cid14_p0	lambda_cid14_p1	lambda_cid14_p2	lambda_cid14_p3	lambda_cid14_p4	lambda_cid14_p5	/jointset/ground_pelvis/pelvis_tilt/accel	/jointset/ground_pelvis/pelvis_tx/accel	/jointset/ground_pelvis/pelvis_ty/accel	/jointset/hip_r/hip_flexion_r/accel	/jointset/hip_r/hip_adduction_r/accel	/jointset/hip_r/hip_rotation_r/accel	/jointset/back/lumbar_extension/accel	/jointset/patellofemoral_r/patellar_flexion_r/accel	/jointset/knee_r/knee_flexion_r/accel	/jointset/knee_r/knee_adduction_r/accel	/jointset/knee_r/knee_rotation_r/accel	/jointset/ankle_r/ankle_angle_r/accel	/jointset/subtalar_r/subtalar_angle_r/accel	gamma_cid13_p0	gamma_cid14_p0	gamma_cid14_p1	gamma_cid14_p2	gamma_cid14_p3	gamma_cid14_p4	gamma_cid14_p5
0.5	-0.1720778816250096	0.02929033125769189	0.8042997716159929	0.9228304723115203	-0.2241390492171099	-0.1225059812078447	-0.6465968458783239	0.9550131813773393	0.955013181377335	-0.04607553459766347	0.1745176647438873	0.2958477762324404	0.1371806662702721	-0.4397827991173219	-0.206656896045481	-0.5104178411680174	1.957308924725353	-0.007354812207242708	0.1721127294997521	-0.7369386213803306	1.935413439981204	1.935413439981206	-0.4725830236143484	-0.0002057448480518642	0.5315591172288381	0.1984133391939541	-0.2142899362923797	0.02862947127819274	0.015076154742526	-0.2664914074839249	-0.01734276534761937	-0.006905279443364229	0.2488591812995395	-8.414066478268635	-48.38962964130404	-10.83625656648669	1.423772560548975	-2.790158445924473	-639.4824670303976	48.21430724775593	0.3635430501686654	0.5913939779000194	-0.4374261597798789	-1.304200577055323	-0.2677556640127219	-0.5961441016728299	1.819897607807437	-1.356909613674947	-1.35690961367494	0.5117752550474229	-0.03202748985266956	-0.5955360138449944	-0.4359908526779562	-1.52107320292077e-07	-1.568247401515567e-07	5.873044519307351e-07	-1.621143922185259e-06	3.71879742324085e-08	-2.874230652264631e-07	4.329386793559561e-07
0.51	-0.176456516742879	0.02725351450921434	0.7991749395272096	0.9423351715452168	-0.2242266274160423	-0.1208143313863499	-0.6538747271344856	0.974296598683668	0.9742965986836633	-0.05077370178804264	0.1745151774471141	0.3011324305994053	0.1391413585420377	-0.4358731747953652	-0.2006906626795595	-0.5144316929639613	1.94336788031884	-0.01013596248399794	0.1661417334626651	-0.718548629416245	1.920992905560898	1.9209929055609	-0.4671049882370478	-0.0002542699342427405	0.5252911704777533	0.1937128961707149	-0.2213948697296613	0.03009141263499084	0.0150310674480436	-0.2707692016954713	-0.01892062771219056	-0.006490523211230496	0.2552743081535655	-7.467543591683059	-49.23004868963525	-10.99306518001861	1.665553976667931	-2.647739739121445	-644.7042808311612	48.19259771551175	0.4153139344962683	0.601613740342007	-0.3658885621412649	-1.478533879302793	-0.2797625606282376	-0.60917001271853	1.861900056090967	-1.526161218580586	-1.526161218580626	0.557713991091302	0.01404828038226029	-0.6545389926900246	-0.4890021490032824	-1.552840354470763e-07	-1.685831800145437e-07	4.874110565303647e-07	-1.732605866188508e-06	5.260464595420713e-08	-2.811561626740911e-07	3.292785743408579e-07
0.52	-0.18079392725527	0.02527683523927676	0.794013464145939	0.9616925648334785	-0.2243413106879648	-0.1191847100568268	-0.6609660384579298	0.9934275034733171	0.9934275034733159	-0.05541870936224305	0.1745132675591529	0.3063519825014697	0.1410546601591997	-0.4315378780219267	-0.1946294003374862	-0.5177464996654821	1.927847735638186	-0.01277582680560484	0.1597070311059025	-0.6996246348368865	1.904910936645706	1.904910936645708	-0.4619511003789514	-9.026308505061015e-05	0.5185386242486756	0.1889352082732203	-0.2284998031669456	0.03155335399178449	0.01498598015355598	-0.2750469959070174	-0.02049849007676223	-0.006075766979103272	0.2616894350075892	-6.580337479376571	-50.06714140799033	-11.14457303761504	1.901099584018553	-2.539042040535154	-649.8835285211583	48.23149368570261	0.4486775404650568	0.6103997731303428	-0.2976171408952804	-1.620020631883592	-0.2394984729830641	-0.6888853656079401	1.926698130861992	-1.689196512652002	-1.689196512651999	0.446945751206596	0.01047889722396717	-0.692455909443601	-0.4514398275290644	-1.508460687081991e-07	-1.852014122863861e-07	2.405736990437481e-07	-1.923620280533254e-06	8.737630925569791e-08	-2.792862842233778e-07	1.431708375253649e-07
0.53	-0.1850859161871277	0.02336120218022599	0.7888223605415645	0.9808869854190181	-0.2244819674854323	-0.1176191091315249	-0.6678655367373079	1.012389745774218	1.01238974577421	-0.06001127304977309	0.1745129244310447	0.3115016258972425	0.1429192885043659	-0.4267887242369555	-0.188485058988045	-0.5203536750401895	1.910774749588733	-0.01535393610553234	0.1535173598491034	-0.6802017414851164	1.887293856278342	1.887293856278344	-0.4564290141963733	-4.210784747001907e-06	0.511313820571907	0.1839378181617294	-0.2354400376561322	0.03272269793862532	0.01505490368269628	-0.2796464388907206	-0.0218602642331671	-0.005736597047485273	0.2679503365157068	-5.753163061405283	-50.85083494590264	-11.32537358902637	2.147958368260201	-2.426124621154487	-655.176973660385	48.28636402309894	0.4986913270441899	0.6182953165302545	-0.2242414712081123	-1.790209457055964	-0.2670137196301456	-0.5686490252476228	1.961076870402273	-1.834484184201082	-1.834484184201129	0.6247557190013874	0.003396880712035668	-0.7489388734658594	-0.5320076343337792	-1.373557520968712e-07	-1.586528981069259e-07	3.042760169708496e-07	-1.687778436633038e-06	6.224832508541508e-08	-2.473347543219209e-07	1.812196526380929e-07
